<svg width="1922" height="189" viewBox="0 0 1922 189" fill="none" xmlns="http://www.w3.org/2000/svg">
<path opacity="0.2" d="M9.82679e-06 151.018V188.36H1365.91V151.018C1365.91 151.018 1038.68 -54.9526 673.067 21.2386C307.455 97.4298 237.478 260.172 9.82679e-06 151.018Z" fill="black"/>
<path opacity="0.2" d="M862.23 151.018V188.36H1921.3V151.018C1921.3 151.018 1900.91 -54.9526 1535.25 21.2386C1169.59 97.4298 1099.71 260.172 862.23 151.018Z" fill="black"/>
<path opacity="0.2" d="M682.062 164.909C682.062 164.909 962.863 -92.8128 1373.73 56.5088C1784.6 205.83 1921.3 143.342 1921.3 143.342V188.36H682.062V164.909Z" fill="black"/>
<path opacity="0.2" d="M-8.64267e-07 143.342C-8.64267e-07 143.342 201.736 -92.8128 569.279 56.5088C936.822 205.83 1059.07 143.342 1059.07 143.342V188.36H-8.64267e-07V143.342Z" fill="black"/>
<path d="M-3.57628e-05 188.36V97.6652C184.784 14.3164 331.142 52.6474 506.225 113.723C607.281 148.946 745.446 173.056 901.363 110.85C971.622 82.832 1111.95 15.0698 1384.61 105.765C1773.81 235.214 1921.3 143.342 1921.3 143.342V188.36H862.23H-3.57628e-05Z" fill="black"/>
</svg>
